<?xml version="1.0" standalone="no"?>
<!DOCTYPE svg PUBLIC "-//W3C//DTD SVG 20010904//EN"
 "http://www.w3.org/TR/2001/REC-SVG-20010904/DTD/svg10.dtd">
<svg version="1.0" xmlns="http://www.w3.org/2000/svg"
 width="128.000000pt" height="128.000000pt" viewBox="0 0 128.000000 128.000000"
 preserveAspectRatio="xMidYMid meet">
<metadata>
Created by potrace 1.11, written by Peter Selinger 2001-2013
</metadata>
<g transform="translate(0.000000,128.000000) scale(0.100000,-0.100000)"
fill="#000000" stroke="none">
<path d="M473 1255 c-101 -24 -192 -93 -236 -181 -34 -67 -40 -102 -42 -224
-2 -104 -3 -107 -69 -280 -37 -96 -76 -196 -86 -222 -11 -26 -20 -59 -20 -73
0 -64 183 -180 354 -224 241 -63 486 -40 702 64 101 49 184 120 184 157 0 12
-39 124 -86 248 l-87 225 -2 110 c-1 61 -5 124 -10 140 -33 123 -145 233 -265
260 -54 13 -283 12 -337 0z m113 -400 l54 -26 55 26 c117 58 232 29 300 -73
26 -40 201 -477 200 -502 0 -8 -7 -16 -17 -18 -13 -2 -32 39 -93 195 -102 262
-129 317 -171 350 -53 40 -127 43 -197 9 -67 -33 -87 -33 -154 0 -45 23 -62
26 -109 21 -108 -11 -127 -39 -259 -379 -72 -185 -91 -219 -110 -188 -7 11
156 437 191 497 66 114 187 148 310 88z m-9 -121 c17 -26 25 -105 12 -125 -7
-13 -190 -21 -232 -11 -37 9 -34 81 6 128 48 55 179 61 214 8z m288 26 c45
-15 76 -51 82 -97 8 -62 -5 -69 -136 -68 -79 1 -115 5 -120 14 -13 20 -4 99
13 125 15 24 75 45 110 40 10 -2 33 -8 51 -14z m-180 -230 c10 -11 20 -40 22
-65 5 -42 3 -45 -19 -46 -25 -2 -99 -2 -109 0 -3 1 -6 18 -7 40 -3 75 69 120
113 71z m-67 -248 l0 -88 -34 -1 -34 -1 0 89 0 89 34 0 34 0 0 -88z m112 -1
l0 -89 -32 1 -33 2 -2 88 -1 87 34 0 34 0 0 -89z m-223 -18 c-1 -56 -9 -73
-33 -73 -19 0 -16 88 4 110 26 29 30 24 29 -37z m295 40 c12 -11 18 -30 18
-63 0 -42 -2 -46 -23 -46 -22 0 -24 4 -23 63 0 35 3 63 5 63 2 0 13 -7 23 -17z
m-408 -89 c12 -12 13 -20 6 -35 -11 -20 -19 -23 -44 -13 -19 7 -21 35 -4 52
16 16 23 15 42 -4z m534 4 c17 -17 15 -45 -4 -52 -25 -10 -33 -7 -44 13 -7 15
-6 23 6 35 19 19 26 20 42 4z"/>
</g>
</svg>
