<svg width="20" height="20" fill="none" xmlns="http://www.w3.org/2000/svg"><path fill-rule="evenodd" clip-rule="evenodd" d="M9 0v1l2 1 1 1h1l1-1h1l-1-1h-1l-1-1H9zM5 1v1L4 3v3l1 1h1l1-1h1l1-1h1V4L8 2H7V1H5zm12 2h-1l-1 1h-1v1l1 1v1l1 1 1 2 1-1 2-2-1-1V5l-1-1-1-1zM1 5v2L0 8v2h1l2-3H2V6c0-2 0-2-1-1zm11 1h-1l-1 1H9L8 8H7v1H6v3h1v1h1v1h2l1-1h1v-1h1l1-1v-1-1-1l-1-1-1-1zm8 4l-1 1-1 2v3l1-2 1-1v-1-1-1zM2 11v1l-1 1v1l1 1v1l1 1h2v-1h1v-1-1l-1-1v-1H4l-1-1H2zm13 2l-1 1h-1l-1 1h-1v1h-1l2 2h1v1h2l1-1v-2-2l-1-1zm-7 4l-1 1H6v1h1v1h4l-2-2-1-1z" fill="gray"/></svg>